999
FreeCAD v0.18.1 
  0
SECTION
  2
HEADER
  9
$ACADVER
  1
AC1014
  9
$ACADMAINTVER
 70
     9
  9
$DWGCODEPAGE
  3
ANSI_1252
  9
$TEXTSTYLE
  7
STANDARD
  9
$DIMSTYLE
  2
STANDARD
  9
$DIMTXSTY
  7
STANDARD
  9
$CMLSTYLE
  2
STANDARD
  9
$HANDSEED
  5
FFF
  0
ENDSEC
  0
SECTION
  2
CLASSES
  0
CLASS
  1
ACDBDICTIONARYWDFLT
  2
AcDbDictionaryWithDefault
  3
ObjectDBX Classes
 90
        0
280
     0
281
     0
  0
CLASS
  1
XRECORD
  2
AcDbXrecord
  3
ObjectDBX Classes
 90
        0
280
     0
281
     0
  0
CLASS
  1
LWPOLYLINE
  2
AcDbPolyline
  3
ObjectDBX Classes
 90
        0
280
     0
281
     1
  0
ENDSEC
  0
SECTION
  2
TABLES
  0
TABLE
  2
VPORT
  5
20
330
0
100
AcDbSymbolTable
 70
     1
  0
VPORT
  5
21
330
20
100
AcDbSymbolTableRecord
100
AcDbViewportTableRecord
  2
*ACTIVE
 70
     0
  0
ENDTAB
  0
TABLE
  2
LTYPE
  5
22
330
0
100
AcDbSymbolTable
 70
     1
  0
LTYPE
  5
23
330
21
100
AcDbSymbolTableRecord
100
AcDbLinetypeTableRecord
  2
BYBLOCK
 70
     0
  3

 72
    65
 73
     0
 40
0.0
  0
LTYPE
  5
24
330
21
100
AcDbSymbolTableRecord
100
AcDbLinetypeTableRecord
  2
BYLAYER
 70
     0
  3

 72
    65
 73
     0
 40
0.0
  0
LTYPE
  5
25
330
21
100
AcDbSymbolTableRecord
100
AcDbLinetypeTableRecord
  2
CONTINUOUS
 70
     0
  3
Solid line
 72
    65
 73
     0
 40
0.0
  0
ENDTAB
  0
TABLE
  2
LAYER
  5
31
330
0
100
AcDbSymbolTable
 70
6
  0
LAYER
  5
32
330
31
100
AcDbSymbolTableRecord
100
AcDbLayerTableRecord
  2
0
 70
   0
 62
   7
  6
CONTINUOUS
  0
LAYER
  5
33
330
31
100
AcDbSymbolTableRecord
100
AcDbLayerTableRecord
  2
View
 70
    0
 62
    7
  6
CONTINUOUS
  0
LAYER
  5
34
330
31
100
AcDbSymbolTableRecord
100
AcDbLayerTableRecord
  2
View001
 70
    0
 62
    7
  6
CONTINUOUS
  0
LAYER
  5
35
330
31
100
AcDbSymbolTableRecord
100
AcDbLayerTableRecord
  2
View002
 70
    0
 62
    7
  6
CONTINUOUS
  0
LAYER
  5
36
330
31
100
AcDbSymbolTableRecord
100
AcDbLayerTableRecord
  2
View003
 70
    0
 62
    7
  6
CONTINUOUS
  0
LAYER
  5
37
330
31
100
AcDbSymbolTableRecord
100
AcDbLayerTableRecord
  2
View004
 70
    0
 62
    7
  6
CONTINUOUS
  0
ENDTAB
  0
TABLE
  2
STYLE
  5
60
330
0
100
AcDbSymbolTable
 70
     2
  0
STYLE
  5
61
330
60
100
AcDbSymbolTableRecord
100
AcDbTextStyleTableRecord
  2
STANDARD
 70
     0
 40
0.0
 41
1.0
 50
0.0
 71
     0
 42
2.5
  3
arial.ttf
  4

  0
STYLE
  5
62
330
60
100
AcDbSymbolTableRecord
100
AcDbTextStyleTableRecord
  2
ANNOTATIVE
 70
     0
 40
0.0
 41
1.0
 50
0.0
 71
     0
 42
2.5
  3
arial.ttf
  4

  0
ENDTAB
  0
TABLE
  2
VIEW
  5
63
330
0
100
AcDbSymbolTable
 70
     0
  0
ENDTAB
  0
TABLE
  2
UCS
  5
64
330
0
100
AcDbSymbolTable
 70
     0
  0
ENDTAB
  0
TABLE
  2
APPID
  5
65
330
0
100
AcDbSymbolTable
 70
     2
  0
APPID
  5
66
330
65
100
AcDbSymbolTableRecord
100
AcDbRegAppTableRecord
  2
ACAD
 70
     0
  0
APPID
  5
67
330
65
100
AcDbSymbolTableRecord
100
AcDbRegAppTableRecord
  2
ACADANNOTATIVE
 70
     0
  0
ENDTAB
  0
TABLE
  2
DIMSTYLE
  5
68
330
0
100
AcDbSymbolTable
 70
     2
  0
DIMSTYLE
105
69
330
68
100
AcDbSymbolTableRecord
100
AcDbDimStyleTableRecord
  2
STANDARD
 70
     0
  3

  4

  5

  6

  7

 40
0.0
 41
2.5
 42
0.625
 43
3.75
 44
1.25
 45
0.0
 46
0.0
 47
0.0
 48
0.0
140
2.5
141
2.5
142
0.0
143
0.03937007874016
144
1.0
145
0.0
146
1.0
147
0.625
 71
     0
 72
     0
 73
     0
 74
     0
 75
     0
 76
     0
 77
     1
 78
     8
170
     0
171
     3
172
     1
173
     0
174
     0
175
     0
176
     0
177
     0
178
     0
270
     2
271
     2
272
     2
273
     2
274
     3
340
61
275
     0
280
     0
281
     0
282
     0
283
     0
284
     8
285
     0
286
     0
287
     3
288
     0
  0
ENDTAB
  0
TABLE
  2
BLOCK_RECORD
  5
111
330
0
100
AcDbSymbolTable
  70
5
  0
BLOCK_RECORD
  5
112
330
111
100
AcDbSymbolTableRecord
100
AcDbBlockTableRecord
  2
*MODEL_SPACE
  0
BLOCK_RECORD
  5
113
330
111
100
AcDbSymbolTableRecord
100
AcDbBlockTableRecord
  2
*PAPER_SPACE
  0
ENDTAB
  0
ENDSEC
  0
SECTION
  2
BLOCKS
  0
BLOCK
  5
211
330
112
100
AcDbEntity
  8
0
100
AcDbBlockBegin
  2
*MODEL_SPACE
 70
   0
 10
0
 20
0
 30
0
  3
*MODEL_SPACE
  1
 
  0
ENDBLK
  5
212
330
112
100
AcDbEntity
  8
0
100
AcDbBlockEnd
  0
BLOCK
  5
213
330
113
100
AcDbEntity
 67
1
  8
0
100
AcDbBlockBegin
  2
*PAPER_SPACE
 70
   0
 10
0
 20
0
 30
0
  3
*PAPER_SPACE
  1
 
  0
ENDBLK
  5
214
330
113
100
AcDbEntity
 67
    1
  8
0
100
AcDbBlockEnd
  0
ENDSEC
  0
SECTION
  2
ENTITIES
  0
LINE
  5
301
330
112
100
AcDbEntity
  8
View
100
AcDbLine
 10
34.5122
 20
276.445
 30
0
 11
47.5122
 21
276.445
 31
0
  0
LINE
  5
302
330
112
100
AcDbEntity
  8
View
100
AcDbLine
 10
34.5122
 20
266.195
 30
0
 11
34.5122
 21
276.445
 31
0
  0
LINE
  5
303
330
112
100
AcDbEntity
  8
View
100
AcDbLine
 10
47.5122
 20
276.445
 30
0
 11
47.5122
 21
266.195
 31
0
  0
LINE
  5
304
330
112
100
AcDbEntity
  8
View
100
AcDbLine
 10
37.5122
 20
266.195
 30
0
 11
34.5122
 21
266.195
 31
0
  0
LINE
  5
305
330
112
100
AcDbEntity
  8
View
100
AcDbLine
 10
47.5122
 20
266.195
 30
0
 11
44.5122
 21
266.195
 31
0
  0
LINE
  5
306
330
112
100
AcDbEntity
  8
View
100
AcDbLine
 10
37.5122
 20
260.195
 30
0
 11
37.5122
 21
266.195
 31
0
  0
LINE
  5
307
330
112
100
AcDbEntity
  8
View
100
AcDbLine
 10
44.5122
 20
266.195
 30
0
 11
44.5122
 21
260.195
 31
0
  0
LINE
  5
308
330
112
100
AcDbEntity
  8
View
100
AcDbLine
 10
34.5122
 20
260.195
 30
0
 11
37.5122
 21
260.195
 31
0
  0
LINE
  5
309
330
112
100
AcDbEntity
  8
View
100
AcDbLine
 10
44.5122
 20
260.195
 30
0
 11
47.5122
 21
260.195
 31
0
  0
LINE
  5
30A
330
112
100
AcDbEntity
  8
View
100
AcDbLine
 10
34.5122
 20
249.945
 30
0
 11
34.5122
 21
260.195
 31
0
  0
LINE
  5
30B
330
112
100
AcDbEntity
  8
View
100
AcDbLine
 10
47.5122
 20
260.195
 30
0
 11
47.5122
 21
249.945
 31
0
  0
LINE
  5
30C
330
112
100
AcDbEntity
  8
View
100
AcDbLine
 10
47.5122
 20
249.945
 30
0
 11
34.5122
 21
249.945
 31
0
  0
CIRCLE
  5
30D
330
112
100
AcDbEntity
  8
View
100
AcDbCircle
 10
42.5122
 20
255.195
 40
1.65
  0
LINE
  5
30E
330
112
100
AcDbEntity
  8
View001
100
AcDbLine
 10
136.171
 20
257.78
 30
0
 11
136.171
 21
247.53
 31
0
  0
LINE
  5
30F
330
112
100
AcDbEntity
  8
View001
100
AcDbLine
 10
136.171
 20
247.53
 30
0
 11
127.921
 21
247.53
 31
0
  0
LINE
  5
310
330
112
100
AcDbEntity
  8
View001
100
AcDbLine
 10
127.921
 20
244.53
 30
0
 11
127.921
 21
247.53
 31
0
  0
LINE
  5
311
330
112
100
AcDbEntity
  8
View001
100
AcDbLine
 10
121.921
 20
244.53
 30
0
 11
127.921
 21
244.53
 31
0
  0
LINE
  5
312
330
112
100
AcDbEntity
  8
View001
100
AcDbLine
 10
121.921
 20
247.53
 30
0
 11
121.921
 21
244.53
 31
0
  0
LINE
  5
313
330
112
100
AcDbEntity
  8
View001
100
AcDbLine
 10
121.921
 20
247.53
 30
0
 11
113.671
 21
247.53
 31
0
  0
LINE
  5
314
330
112
100
AcDbEntity
  8
View001
100
AcDbLine
 10
113.671
 20
247.53
 30
0
 11
113.671
 21
257.78
 31
0
  0
LINE
  5
315
330
112
100
AcDbEntity
  8
View001
100
AcDbLine
 10
136.171
 20
257.78
 30
0
 11
139.171
 21
257.78
 31
0
  0
LINE
  5
316
330
112
100
AcDbEntity
  8
View001
100
AcDbLine
 10
139.171
 20
257.78
 30
0
 11
139.171
 21
263.78
 31
0
  0
LINE
  5
317
330
112
100
AcDbEntity
  8
View001
100
AcDbLine
 10
113.671
 20
274.03
 30
0
 11
121.921
 21
274.03
 31
0
  0
LINE
  5
318
330
112
100
AcDbEntity
  8
View001
100
AcDbLine
 10
121.921
 20
274.03
 30
0
 11
121.921
 21
277.03
 31
0
  0
LINE
  5
319
330
112
100
AcDbEntity
  8
View001
100
AcDbLine
 10
113.671
 20
263.78
 30
0
 11
113.671
 21
274.03
 31
0
  0
LINE
  5
31A
330
112
100
AcDbEntity
  8
View001
100
AcDbLine
 10
121.921
 20
277.03
 30
0
 11
127.921
 21
277.03
 31
0
  0
LINE
  5
31B
330
112
100
AcDbEntity
  8
View001
100
AcDbLine
 10
127.921
 20
277.03
 30
0
 11
127.921
 21
274.03
 31
0
  0
LINE
  5
31C
330
112
100
AcDbEntity
  8
View001
100
AcDbLine
 10
127.921
 20
274.03
 30
0
 11
136.171
 21
274.03
 31
0
  0
LINE
  5
31D
330
112
100
AcDbEntity
  8
View001
100
AcDbLine
 10
136.171
 20
274.03
 30
0
 11
136.171
 21
263.78
 31
0
  0
LINE
  5
31E
330
112
100
AcDbEntity
  8
View001
100
AcDbLine
 10
110.671
 20
263.78
 30
0
 11
113.671
 21
263.78
 31
0
  0
LINE
  5
31F
330
112
100
AcDbEntity
  8
View001
100
AcDbLine
 10
139.171
 20
263.78
 30
0
 11
136.171
 21
263.78
 31
0
  0
LINE
  5
320
330
112
100
AcDbEntity
  8
View001
100
AcDbLine
 10
113.671
 20
257.78
 30
0
 11
110.671
 21
257.78
 31
0
  0
LINE
  5
321
330
112
100
AcDbEntity
  8
View001
100
AcDbLine
 10
110.671
 20
257.78
 30
0
 11
110.671
 21
263.78
 31
0
  0
CIRCLE
  5
322
330
112
100
AcDbEntity
  8
View001
100
AcDbCircle
 10
124.921
 20
260.78
 40
5
  0
CIRCLE
  5
323
330
112
100
AcDbEntity
  8
View001
100
AcDbCircle
 10
116.921
 20
260.78
 40
1.5
  0
CIRCLE
  5
324
330
112
100
AcDbEntity
  8
View001
100
AcDbCircle
 10
132.921
 20
260.78
 40
1.5
  0
CIRCLE
  5
325
330
112
100
AcDbEntity
  8
View001
100
AcDbCircle
 10
124.921
 20
268.78
 40
1.5
  0
LINE
  5
326
330
112
100
AcDbEntity
  8
View002
100
AcDbLine
 10
69.6037
 20
271.57
 30
0
 11
77.8537
 21
271.57
 31
0
  0
LINE
  5
327
330
112
100
AcDbEntity
  8
View002
100
AcDbLine
 10
77.8537
 20
271.57
 30
0
 11
77.8537
 21
274.57
 31
0
  0
LINE
  5
328
330
112
100
AcDbEntity
  8
View002
100
AcDbLine
 10
77.8537
 20
274.57
 30
0
 11
83.8537
 21
274.57
 31
0
  0
LINE
  5
329
330
112
100
AcDbEntity
  8
View002
100
AcDbLine
 10
83.8537
 20
274.57
 30
0
 11
83.8537
 21
271.57
 31
0
  0
LINE
  5
32A
330
112
100
AcDbEntity
  8
View002
100
AcDbLine
 10
83.8537
 20
271.57
 30
0
 11
92.1037
 21
271.57
 31
0
  0
LINE
  5
32B
330
112
100
AcDbEntity
  8
View002
100
AcDbLine
 10
92.1037
 20
271.57
 30
0
 11
92.1037
 21
251.82
 31
0
  0
LINE
  5
32C
330
112
100
AcDbEntity
  8
View002
100
AcDbLine
 10
69.6037
 20
251.82
 30
0
 11
92.1037
 21
251.82
 31
0
  0
LINE
  5
32D
330
112
100
AcDbEntity
  8
View002
100
AcDbLine
 10
69.6037
 20
251.82
 30
0
 11
69.6037
 21
271.57
 31
0
  0
CIRCLE
  5
32E
330
112
100
AcDbEntity
  8
View002
100
AcDbCircle
 10
80.8537
 20
258.32
 40
5
  0
CIRCLE
  5
32F
330
112
100
AcDbEntity
  8
View002
100
AcDbCircle
 10
80.8537
 20
266.32
 40
1.5
  0
CIRCLE
  5
330
330
112
100
AcDbEntity
  8
View002
100
AcDbCircle
 10
88.8537
 20
258.32
 40
1.5
  0
CIRCLE
  5
331
330
112
100
AcDbEntity
  8
View002
100
AcDbCircle
 10
72.8537
 20
258.32
 40
1.5
  0
LINE
  5
332
330
112
100
AcDbEntity
  8
View003
100
AcDbLine
 10
179.03
 20
259.591
 30
0
 11
179.03
 21
249.341
 31
0
  0
LINE
  5
333
330
112
100
AcDbEntity
  8
View003
100
AcDbLine
 10
179.03
 20
249.341
 30
0
 11
170.78
 21
249.341
 31
0
  0
LINE
  5
334
330
112
100
AcDbEntity
  8
View003
100
AcDbLine
 10
170.78
 20
246.341
 30
0
 11
170.78
 21
249.341
 31
0
  0
LINE
  5
335
330
112
100
AcDbEntity
  8
View003
100
AcDbLine
 10
164.78
 20
246.341
 30
0
 11
170.78
 21
246.341
 31
0
  0
LINE
  5
336
330
112
100
AcDbEntity
  8
View003
100
AcDbLine
 10
164.78
 20
249.341
 30
0
 11
164.78
 21
246.341
 31
0
  0
LINE
  5
337
330
112
100
AcDbEntity
  8
View003
100
AcDbLine
 10
164.78
 20
249.341
 30
0
 11
156.53
 21
249.341
 31
0
  0
LINE
  5
338
330
112
100
AcDbEntity
  8
View003
100
AcDbLine
 10
156.53
 20
249.341
 30
0
 11
156.53
 21
259.591
 31
0
  0
LINE
  5
339
330
112
100
AcDbEntity
  8
View003
100
AcDbLine
 10
179.03
 20
259.591
 30
0
 11
182.03
 21
259.591
 31
0
  0
LINE
  5
33A
330
112
100
AcDbEntity
  8
View003
100
AcDbLine
 10
182.03
 20
259.591
 30
0
 11
182.03
 21
265.591
 31
0
  0
LINE
  5
33B
330
112
100
AcDbEntity
  8
View003
100
AcDbLine
 10
156.53
 20
275.841
 30
0
 11
164.78
 21
275.841
 31
0
  0
LINE
  5
33C
330
112
100
AcDbEntity
  8
View003
100
AcDbLine
 10
164.78
 20
275.841
 30
0
 11
164.78
 21
278.841
 31
0
  0
LINE
  5
33D
330
112
100
AcDbEntity
  8
View003
100
AcDbLine
 10
156.53
 20
265.591
 30
0
 11
156.53
 21
275.841
 31
0
  0
LINE
  5
33E
330
112
100
AcDbEntity
  8
View003
100
AcDbLine
 10
164.78
 20
278.841
 30
0
 11
170.78
 21
278.841
 31
0
  0
LINE
  5
33F
330
112
100
AcDbEntity
  8
View003
100
AcDbLine
 10
170.78
 20
278.841
 30
0
 11
170.78
 21
275.841
 31
0
  0
LINE
  5
340
330
112
100
AcDbEntity
  8
View003
100
AcDbLine
 10
170.78
 20
275.841
 30
0
 11
179.03
 21
275.841
 31
0
  0
LINE
  5
341
330
112
100
AcDbEntity
  8
View003
100
AcDbLine
 10
179.03
 20
275.841
 30
0
 11
179.03
 21
265.591
 31
0
  0
LINE
  5
342
330
112
100
AcDbEntity
  8
View003
100
AcDbLine
 10
153.53
 20
265.591
 30
0
 11
156.53
 21
265.591
 31
0
  0
LINE
  5
343
330
112
100
AcDbEntity
  8
View003
100
AcDbLine
 10
182.03
 20
265.591
 30
0
 11
179.03
 21
265.591
 31
0
  0
LINE
  5
344
330
112
100
AcDbEntity
  8
View003
100
AcDbLine
 10
156.53
 20
259.591
 30
0
 11
153.53
 21
259.591
 31
0
  0
LINE
  5
345
330
112
100
AcDbEntity
  8
View003
100
AcDbLine
 10
153.53
 20
259.591
 30
0
 11
153.53
 21
265.591
 31
0
  0
CIRCLE
  5
346
330
112
100
AcDbEntity
  8
View003
100
AcDbCircle
 10
167.78
 20
262.591
 40
5
  0
CIRCLE
  5
347
330
112
100
AcDbEntity
  8
View003
100
AcDbCircle
 10
159.78
 20
262.591
 40
1.5
  0
CIRCLE
  5
348
330
112
100
AcDbEntity
  8
View003
100
AcDbCircle
 10
175.78
 20
262.591
 40
1.5
  0
CIRCLE
  5
349
330
112
100
AcDbEntity
  8
View003
100
AcDbCircle
 10
167.78
 20
270.591
 40
1.5
  0
LINE
  5
34A
330
112
100
AcDbEntity
  8
View004
100
AcDbLine
 10
29.6829
 20
236
 30
0
 11
42.6829
 21
236
 31
0
  0
LINE
  5
34B
330
112
100
AcDbEntity
  8
View004
100
AcDbLine
 10
29.6829
 20
225.75
 30
0
 11
29.6829
 21
236
 31
0
  0
LINE
  5
34C
330
112
100
AcDbEntity
  8
View004
100
AcDbLine
 10
42.6829
 20
236
 30
0
 11
42.6829
 21
225.75
 31
0
  0
LINE
  5
34D
330
112
100
AcDbEntity
  8
View004
100
AcDbLine
 10
32.6829
 20
225.75
 30
0
 11
29.6829
 21
225.75
 31
0
  0
LINE
  5
34E
330
112
100
AcDbEntity
  8
View004
100
AcDbLine
 10
42.6829
 20
225.75
 30
0
 11
39.6829
 21
225.75
 31
0
  0
LINE
  5
34F
330
112
100
AcDbEntity
  8
View004
100
AcDbLine
 10
32.6829
 20
219.75
 30
0
 11
32.6829
 21
225.75
 31
0
  0
LINE
  5
350
330
112
100
AcDbEntity
  8
View004
100
AcDbLine
 10
39.6829
 20
225.75
 30
0
 11
39.6829
 21
219.75
 31
0
  0
LINE
  5
351
330
112
100
AcDbEntity
  8
View004
100
AcDbLine
 10
29.6829
 20
219.75
 30
0
 11
32.6829
 21
219.75
 31
0
  0
LINE
  5
352
330
112
100
AcDbEntity
  8
View004
100
AcDbLine
 10
39.6829
 20
219.75
 30
0
 11
42.6829
 21
219.75
 31
0
  0
LINE
  5
353
330
112
100
AcDbEntity
  8
View004
100
AcDbLine
 10
29.6829
 20
209.5
 30
0
 11
29.6829
 21
219.75
 31
0
  0
LINE
  5
354
330
112
100
AcDbEntity
  8
View004
100
AcDbLine
 10
42.6829
 20
219.75
 30
0
 11
42.6829
 21
209.5
 31
0
  0
LINE
  5
355
330
112
100
AcDbEntity
  8
View004
100
AcDbLine
 10
42.6829
 20
209.5
 30
0
 11
29.6829
 21
209.5
 31
0
  0
CIRCLE
  5
356
330
112
100
AcDbEntity
  8
View004
100
AcDbCircle
 10
37.6829
 20
214.75
 40
1.65
  0
ENDSEC
  0
SECTION
  2
OBJECTS
  0
DICTIONARY
  5
500
330
0
100
AcDbDictionary
  3
ACAD_GROUP
350
501
  0
DICTIONARY
  5
501
330
500
100
AcDbDictionary
  0
ENDSEC
  0
EOF