999
FreeCAD v0.18.1 
  0
SECTION
  2
HEADER
  9
$ACADVER
  1
AC1014
  9
$ACADMAINTVER
 70
     9
  9
$DWGCODEPAGE
  3
ANSI_1252
  9
$TEXTSTYLE
  7
STANDARD
  9
$DIMSTYLE
  2
STANDARD
  9
$DIMTXSTY
  7
STANDARD
  9
$CMLSTYLE
  2
STANDARD
  9
$HANDSEED
  5
FFF
  0
ENDSEC
  0
SECTION
  2
CLASSES
  0
CLASS
  1
ACDBDICTIONARYWDFLT
  2
AcDbDictionaryWithDefault
  3
ObjectDBX Classes
 90
        0
280
     0
281
     0
  0
CLASS
  1
XRECORD
  2
AcDbXrecord
  3
ObjectDBX Classes
 90
        0
280
     0
281
     0
  0
CLASS
  1
LWPOLYLINE
  2
AcDbPolyline
  3
ObjectDBX Classes
 90
        0
280
     0
281
     1
  0
ENDSEC
  0
SECTION
  2
TABLES
  0
TABLE
  2
VPORT
  5
20
330
0
100
AcDbSymbolTable
 70
     1
  0
VPORT
  5
21
330
20
100
AcDbSymbolTableRecord
100
AcDbViewportTableRecord
  2
*ACTIVE
 70
     0
  0
ENDTAB
  0
TABLE
  2
LTYPE
  5
22
330
0
100
AcDbSymbolTable
 70
     1
  0
LTYPE
  5
23
330
21
100
AcDbSymbolTableRecord
100
AcDbLinetypeTableRecord
  2
BYBLOCK
 70
     0
  3

 72
    65
 73
     0
 40
0.0
  0
LTYPE
  5
24
330
21
100
AcDbSymbolTableRecord
100
AcDbLinetypeTableRecord
  2
BYLAYER
 70
     0
  3

 72
    65
 73
     0
 40
0.0
  0
LTYPE
  5
25
330
21
100
AcDbSymbolTableRecord
100
AcDbLinetypeTableRecord
  2
CONTINUOUS
 70
     0
  3
Solid line
 72
    65
 73
     0
 40
0.0
  0
ENDTAB
  0
TABLE
  2
LAYER
  5
31
330
0
100
AcDbSymbolTable
 70
6
  0
LAYER
  5
32
330
31
100
AcDbSymbolTableRecord
100
AcDbLayerTableRecord
  2
0
 70
   0
 62
   7
  6
CONTINUOUS
  0
LAYER
  5
33
330
31
100
AcDbSymbolTableRecord
100
AcDbLayerTableRecord
  2
View
 70
    0
 62
    7
  6
CONTINUOUS
  0
LAYER
  5
34
330
31
100
AcDbSymbolTableRecord
100
AcDbLayerTableRecord
  2
View001
 70
    0
 62
    7
  6
CONTINUOUS
  0
LAYER
  5
35
330
31
100
AcDbSymbolTableRecord
100
AcDbLayerTableRecord
  2
View002
 70
    0
 62
    7
  6
CONTINUOUS
  0
LAYER
  5
36
330
31
100
AcDbSymbolTableRecord
100
AcDbLayerTableRecord
  2
View003
 70
    0
 62
    7
  6
CONTINUOUS
  0
LAYER
  5
37
330
31
100
AcDbSymbolTableRecord
100
AcDbLayerTableRecord
  2
View004
 70
    0
 62
    7
  6
CONTINUOUS
  0
ENDTAB
  0
TABLE
  2
STYLE
  5
60
330
0
100
AcDbSymbolTable
 70
     2
  0
STYLE
  5
61
330
60
100
AcDbSymbolTableRecord
100
AcDbTextStyleTableRecord
  2
STANDARD
 70
     0
 40
0.0
 41
1.0
 50
0.0
 71
     0
 42
2.5
  3
arial.ttf
  4

  0
STYLE
  5
62
330
60
100
AcDbSymbolTableRecord
100
AcDbTextStyleTableRecord
  2
ANNOTATIVE
 70
     0
 40
0.0
 41
1.0
 50
0.0
 71
     0
 42
2.5
  3
arial.ttf
  4

  0
ENDTAB
  0
TABLE
  2
VIEW
  5
63
330
0
100
AcDbSymbolTable
 70
     0
  0
ENDTAB
  0
TABLE
  2
UCS
  5
64
330
0
100
AcDbSymbolTable
 70
     0
  0
ENDTAB
  0
TABLE
  2
APPID
  5
65
330
0
100
AcDbSymbolTable
 70
     2
  0
APPID
  5
66
330
65
100
AcDbSymbolTableRecord
100
AcDbRegAppTableRecord
  2
ACAD
 70
     0
  0
APPID
  5
67
330
65
100
AcDbSymbolTableRecord
100
AcDbRegAppTableRecord
  2
ACADANNOTATIVE
 70
     0
  0
ENDTAB
  0
TABLE
  2
DIMSTYLE
  5
68
330
0
100
AcDbSymbolTable
 70
     2
  0
DIMSTYLE
105
69
330
68
100
AcDbSymbolTableRecord
100
AcDbDimStyleTableRecord
  2
STANDARD
 70
     0
  3

  4

  5

  6

  7

 40
0.0
 41
2.5
 42
0.625
 43
3.75
 44
1.25
 45
0.0
 46
0.0
 47
0.0
 48
0.0
140
2.5
141
2.5
142
0.0
143
0.03937007874016
144
1.0
145
0.0
146
1.0
147
0.625
 71
     0
 72
     0
 73
     0
 74
     0
 75
     0
 76
     0
 77
     1
 78
     8
170
     0
171
     3
172
     1
173
     0
174
     0
175
     0
176
     0
177
     0
178
     0
270
     2
271
     2
272
     2
273
     2
274
     3
340
61
275
     0
280
     0
281
     0
282
     0
283
     0
284
     8
285
     0
286
     0
287
     3
288
     0
  0
ENDTAB
  0
TABLE
  2
BLOCK_RECORD
  5
111
330
0
100
AcDbSymbolTable
  70
5
  0
BLOCK_RECORD
  5
112
330
111
100
AcDbSymbolTableRecord
100
AcDbBlockTableRecord
  2
*MODEL_SPACE
  0
BLOCK_RECORD
  5
113
330
111
100
AcDbSymbolTableRecord
100
AcDbBlockTableRecord
  2
*PAPER_SPACE
  0
ENDTAB
  0
ENDSEC
  0
SECTION
  2
BLOCKS
  0
BLOCK
  5
211
330
112
100
AcDbEntity
  8
0
100
AcDbBlockBegin
  2
*MODEL_SPACE
 70
   0
 10
0
 20
0
 30
0
  3
*MODEL_SPACE
  1
 
  0
ENDBLK
  5
212
330
112
100
AcDbEntity
  8
0
100
AcDbBlockEnd
  0
BLOCK
  5
213
330
113
100
AcDbEntity
 67
1
  8
0
100
AcDbBlockBegin
  2
*PAPER_SPACE
 70
   0
 10
0
 20
0
 30
0
  3
*PAPER_SPACE
  1
 
  0
ENDBLK
  5
214
330
113
100
AcDbEntity
 67
    1
  8
0
100
AcDbBlockEnd
  0
ENDSEC
  0
SECTION
  2
ENTITIES
  0
LINE
  5
301
330
112
100
AcDbEntity
  8
View
100
AcDbLine
 10
3.92683
 20
203.598
 30
0
 11
223.927
 21
203.598
 31
0
  0
LINE
  5
302
330
112
100
AcDbEntity
  8
View
100
AcDbLine
 10
3.92683
 20
133.598
 30
0
 11
3.92683
 21
203.598
 31
0
  0
LINE
  5
303
330
112
100
AcDbEntity
  8
View
100
AcDbLine
 10
223.927
 20
203.598
 30
0
 11
223.927
 21
133.598
 31
0
  0
LINE
  5
304
330
112
100
AcDbEntity
  8
View
100
AcDbLine
 10
223.927
 20
133.598
 30
0
 11
3.92683
 21
133.598
 31
0
  0
LINE
  5
305
330
112
100
AcDbEntity
  8
View
100
AcDbLine
 10
48.9268
 20
189.848
 30
0
 11
198.927
 21
189.848
 31
0
  0
LINE
  5
306
330
112
100
AcDbEntity
  8
View
100
AcDbLine
 10
48.9268
 20
184.848
 30
0
 11
48.9268
 21
189.848
 31
0
  0
LINE
  5
307
330
112
100
AcDbEntity
  8
View
100
AcDbLine
 10
198.927
 20
189.848
 30
0
 11
198.927
 21
184.848
 31
0
  0
LINE
  5
308
330
112
100
AcDbEntity
  8
View
100
AcDbLine
 10
198.927
 20
184.848
 30
0
 11
48.9268
 21
184.848
 31
0
  0
LINE
  5
309
330
112
100
AcDbEntity
  8
View
100
AcDbLine
 10
48.9268
 20
165.598
 30
0
 11
48.9268
 21
171.598
 31
0
  0
LINE
  5
30A
330
112
100
AcDbEntity
  8
View
100
AcDbLine
 10
198.927
 20
165.598
 30
0
 11
48.9268
 21
165.598
 31
0
  0
LINE
  5
30B
330
112
100
AcDbEntity
  8
View
100
AcDbLine
 10
48.9268
 20
171.598
 30
0
 11
198.927
 21
171.598
 31
0
  0
LINE
  5
30C
330
112
100
AcDbEntity
  8
View
100
AcDbLine
 10
198.927
 20
171.598
 30
0
 11
198.927
 21
165.598
 31
0
  0
LINE
  5
30D
330
112
100
AcDbEntity
  8
View
100
AcDbLine
 10
208.927
 20
183.598
 30
0
 11
211.927
 21
183.598
 31
0
  0
LINE
  5
30E
330
112
100
AcDbEntity
  8
View
100
AcDbLine
 10
211.927
 20
183.598
 30
0
 11
211.927
 21
153.598
 31
0
  0
LINE
  5
30F
330
112
100
AcDbEntity
  8
View
100
AcDbLine
 10
211.927
 20
153.598
 30
0
 11
208.927
 21
153.598
 31
0
  0
LINE
  5
310
330
112
100
AcDbEntity
  8
View
100
AcDbLine
 10
208.927
 20
153.598
 30
0
 11
208.927
 21
183.598
 31
0
  0
LINE
  5
311
330
112
100
AcDbEntity
  8
View
100
AcDbLine
 10
15.9268
 20
183.598
 30
0
 11
18.9268
 21
183.598
 31
0
  0
LINE
  5
312
330
112
100
AcDbEntity
  8
View
100
AcDbLine
 10
18.9268
 20
183.598
 30
0
 11
18.9268
 21
153.598
 31
0
  0
LINE
  5
313
330
112
100
AcDbEntity
  8
View
100
AcDbLine
 10
18.9268
 20
153.598
 30
0
 11
15.9268
 21
153.598
 31
0
  0
LINE
  5
314
330
112
100
AcDbEntity
  8
View
100
AcDbLine
 10
15.9268
 20
153.598
 30
0
 11
15.9268
 21
183.598
 31
0
  0
LINE
  5
315
330
112
100
AcDbEntity
  8
View
100
AcDbLine
 10
48.9268
 20
152.348
 30
0
 11
48.9268
 21
147.348
 31
0
  0
LINE
  5
316
330
112
100
AcDbEntity
  8
View
100
AcDbLine
 10
198.927
 20
152.348
 30
0
 11
48.9268
 21
152.348
 31
0
  0
LINE
  5
317
330
112
100
AcDbEntity
  8
View
100
AcDbLine
 10
48.9268
 20
147.348
 30
0
 11
198.927
 21
147.348
 31
0
  0
LINE
  5
318
330
112
100
AcDbEntity
  8
View
100
AcDbLine
 10
198.927
 20
147.348
 30
0
 11
198.927
 21
152.348
 31
0
  0
LINE
  5
319
330
112
100
AcDbEntity
  8
View001
100
AcDbLine
 10
20.6341
 20
123.549
 30
0
 11
210.634
 21
123.549
 31
0
  0
LINE
  5
31A
330
112
100
AcDbEntity
  8
View001
100
AcDbLine
 10
20.6341
 20
120.549
 30
0
 11
20.6341
 21
123.549
 31
0
  0
LINE
  5
31B
330
112
100
AcDbEntity
  8
View001
100
AcDbLine
 10
210.634
 20
123.549
 30
0
 11
210.634
 21
120.549
 31
0
  0
LINE
  5
31C
330
112
100
AcDbEntity
  8
View001
100
AcDbLine
 10
210.634
 20
120.549
 30
0
 11
198.634
 21
120.549
 31
0
  0
LINE
  5
31D
330
112
100
AcDbEntity
  8
View001
100
AcDbLine
 10
198.634
 20
120.549
 30
0
 11
198.634
 21
121.799
 31
0
  0
LINE
  5
31E
330
112
100
AcDbEntity
  8
View001
100
AcDbLine
 10
198.634
 20
121.799
 30
0
 11
196.234
 21
121.799
 31
0
  0
LINE
  5
31F
330
112
100
AcDbEntity
  8
View001
100
AcDbLine
 10
196.234
 20
121.799
 30
0
 11
196.234
 21
120.549
 31
0
  0
LINE
  5
320
330
112
100
AcDbEntity
  8
View001
100
AcDbLine
 10
196.234
 20
120.549
 30
0
 11
192.634
 21
120.549
 31
0
  0
LINE
  5
321
330
112
100
AcDbEntity
  8
View001
100
AcDbLine
 10
192.634
 20
120.549
 30
0
 11
192.634
 21
117.549
 31
0
  0
LINE
  5
322
330
112
100
AcDbEntity
  8
View001
100
AcDbLine
 10
192.634
 20
117.549
 30
0
 11
196.234
 21
117.549
 31
0
  0
LINE
  5
323
330
112
100
AcDbEntity
  8
View001
100
AcDbLine
 10
196.234
 20
117.549
 30
0
 11
196.234
 21
116.299
 31
0
  0
LINE
  5
324
330
112
100
AcDbEntity
  8
View001
100
AcDbLine
 10
196.234
 20
116.299
 30
0
 11
198.634
 21
116.299
 31
0
  0
LINE
  5
325
330
112
100
AcDbEntity
  8
View001
100
AcDbLine
 10
198.634
 20
116.299
 30
0
 11
198.634
 21
117.549
 31
0
  0
LINE
  5
326
330
112
100
AcDbEntity
  8
View001
100
AcDbLine
 10
198.634
 20
117.549
 30
0
 11
210.634
 21
117.549
 31
0
  0
LINE
  5
327
330
112
100
AcDbEntity
  8
View001
100
AcDbLine
 10
210.634
 20
117.549
 30
0
 11
210.634
 21
115.549
 31
0
  0
LINE
  5
328
330
112
100
AcDbEntity
  8
View001
100
AcDbLine
 10
210.634
 20
115.549
 30
0
 11
213.634
 21
115.549
 31
0
  0
LINE
  5
329
330
112
100
AcDbEntity
  8
View001
100
AcDbLine
 10
213.634
 20
105.549
 30
0
 11
213.634
 21
115.549
 31
0
  0
LINE
  5
32A
330
112
100
AcDbEntity
  8
View001
100
AcDbLine
 10
210.634
 20
105.549
 30
0
 11
213.634
 21
105.549
 31
0
  0
LINE
  5
32B
330
112
100
AcDbEntity
  8
View001
100
AcDbLine
 10
210.634
 20
105.549
 30
0
 11
210.634
 21
103.549
 31
0
  0
LINE
  5
32C
330
112
100
AcDbEntity
  8
View001
100
AcDbLine
 10
198.634
 20
103.549
 30
0
 11
210.634
 21
103.549
 31
0
  0
LINE
  5
32D
330
112
100
AcDbEntity
  8
View001
100
AcDbLine
 10
198.634
 20
104.799
 30
0
 11
198.634
 21
103.549
 31
0
  0
LINE
  5
32E
330
112
100
AcDbEntity
  8
View001
100
AcDbLine
 10
196.234
 20
104.799
 30
0
 11
198.634
 21
104.799
 31
0
  0
LINE
  5
32F
330
112
100
AcDbEntity
  8
View001
100
AcDbLine
 10
196.234
 20
103.549
 30
0
 11
196.234
 21
104.799
 31
0
  0
LINE
  5
330
330
112
100
AcDbEntity
  8
View001
100
AcDbLine
 10
192.634
 20
103.549
 30
0
 11
196.234
 21
103.549
 31
0
  0
LINE
  5
331
330
112
100
AcDbEntity
  8
View001
100
AcDbLine
 10
192.634
 20
100.549
 30
0
 11
192.634
 21
103.549
 31
0
  0
LINE
  5
332
330
112
100
AcDbEntity
  8
View001
100
AcDbLine
 10
196.234
 20
100.549
 30
0
 11
192.634
 21
100.549
 31
0
  0
LINE
  5
333
330
112
100
AcDbEntity
  8
View001
100
AcDbLine
 10
196.234
 20
99.2988
 30
0
 11
196.234
 21
100.549
 31
0
  0
LINE
  5
334
330
112
100
AcDbEntity
  8
View001
100
AcDbLine
 10
198.634
 20
99.2988
 30
0
 11
196.234
 21
99.2988
 31
0
  0
LINE
  5
335
330
112
100
AcDbEntity
  8
View001
100
AcDbLine
 10
198.634
 20
100.549
 30
0
 11
198.634
 21
99.2988
 31
0
  0
LINE
  5
336
330
112
100
AcDbEntity
  8
View001
100
AcDbLine
 10
210.634
 20
100.549
 30
0
 11
198.634
 21
100.549
 31
0
  0
LINE
  5
337
330
112
100
AcDbEntity
  8
View001
100
AcDbLine
 10
210.634
 20
100.549
 30
0
 11
210.634
 21
97.5488
 31
0
  0
LINE
  5
338
330
112
100
AcDbEntity
  8
View001
100
AcDbLine
 10
210.634
 20
97.5488
 30
0
 11
20.6341
 21
97.5488
 31
0
  0
LINE
  5
339
330
112
100
AcDbEntity
  8
View001
100
AcDbLine
 10
20.6341
 20
97.5488
 30
0
 11
20.6341
 21
100.549
 31
0
  0
LINE
  5
33A
330
112
100
AcDbEntity
  8
View001
100
AcDbLine
 10
20.6341
 20
100.549
 30
0
 11
32.6341
 21
100.549
 31
0
  0
LINE
  5
33B
330
112
100
AcDbEntity
  8
View001
100
AcDbLine
 10
32.6341
 20
100.549
 30
0
 11
32.6341
 21
99.2988
 31
0
  0
LINE
  5
33C
330
112
100
AcDbEntity
  8
View001
100
AcDbLine
 10
32.6341
 20
99.2988
 30
0
 11
35.0341
 21
99.2988
 31
0
  0
LINE
  5
33D
330
112
100
AcDbEntity
  8
View001
100
AcDbLine
 10
35.0341
 20
99.2988
 30
0
 11
35.0341
 21
100.549
 31
0
  0
LINE
  5
33E
330
112
100
AcDbEntity
  8
View001
100
AcDbLine
 10
35.0341
 20
100.549
 30
0
 11
38.6341
 21
100.549
 31
0
  0
LINE
  5
33F
330
112
100
AcDbEntity
  8
View001
100
AcDbLine
 10
38.6341
 20
100.549
 30
0
 11
38.6341
 21
103.549
 31
0
  0
LINE
  5
340
330
112
100
AcDbEntity
  8
View001
100
AcDbLine
 10
38.6341
 20
103.549
 30
0
 11
35.0341
 21
103.549
 31
0
  0
LINE
  5
341
330
112
100
AcDbEntity
  8
View001
100
AcDbLine
 10
35.0341
 20
103.549
 30
0
 11
35.0341
 21
104.799
 31
0
  0
LINE
  5
342
330
112
100
AcDbEntity
  8
View001
100
AcDbLine
 10
35.0341
 20
104.799
 30
0
 11
32.6341
 21
104.799
 31
0
  0
LINE
  5
343
330
112
100
AcDbEntity
  8
View001
100
AcDbLine
 10
32.6341
 20
104.799
 30
0
 11
32.6341
 21
103.549
 31
0
  0
LINE
  5
344
330
112
100
AcDbEntity
  8
View001
100
AcDbLine
 10
32.6341
 20
103.549
 30
0
 11
20.6341
 21
103.549
 31
0
  0
LINE
  5
345
330
112
100
AcDbEntity
  8
View001
100
AcDbLine
 10
20.6341
 20
103.549
 30
0
 11
20.6341
 21
105.549
 31
0
  0
LINE
  5
346
330
112
100
AcDbEntity
  8
View001
100
AcDbLine
 10
20.6341
 20
105.549
 30
0
 11
17.6341
 21
105.549
 31
0
  0
LINE
  5
347
330
112
100
AcDbEntity
  8
View001
100
AcDbLine
 10
17.6341
 20
105.549
 30
0
 11
17.6341
 21
115.549
 31
0
  0
LINE
  5
348
330
112
100
AcDbEntity
  8
View001
100
AcDbLine
 10
20.6341
 20
115.549
 30
0
 11
17.6341
 21
115.549
 31
0
  0
LINE
  5
349
330
112
100
AcDbEntity
  8
View001
100
AcDbLine
 10
20.6341
 20
115.549
 30
0
 11
20.6341
 21
117.549
 31
0
  0
LINE
  5
34A
330
112
100
AcDbEntity
  8
View001
100
AcDbLine
 10
32.6341
 20
117.549
 30
0
 11
20.6341
 21
117.549
 31
0
  0
LINE
  5
34B
330
112
100
AcDbEntity
  8
View001
100
AcDbLine
 10
32.6341
 20
116.299
 30
0
 11
32.6341
 21
117.549
 31
0
  0
LINE
  5
34C
330
112
100
AcDbEntity
  8
View001
100
AcDbLine
 10
35.0341
 20
116.299
 30
0
 11
32.6341
 21
116.299
 31
0
  0
LINE
  5
34D
330
112
100
AcDbEntity
  8
View001
100
AcDbLine
 10
35.0341
 20
117.549
 30
0
 11
35.0341
 21
116.299
 31
0
  0
LINE
  5
34E
330
112
100
AcDbEntity
  8
View001
100
AcDbLine
 10
38.6341
 20
117.549
 30
0
 11
35.0341
 21
117.549
 31
0
  0
LINE
  5
34F
330
112
100
AcDbEntity
  8
View001
100
AcDbLine
 10
38.6341
 20
120.549
 30
0
 11
38.6341
 21
117.549
 31
0
  0
LINE
  5
350
330
112
100
AcDbEntity
  8
View001
100
AcDbLine
 10
35.0341
 20
120.549
 30
0
 11
38.6341
 21
120.549
 31
0
  0
LINE
  5
351
330
112
100
AcDbEntity
  8
View001
100
AcDbLine
 10
35.0341
 20
121.799
 30
0
 11
35.0341
 21
120.549
 31
0
  0
LINE
  5
352
330
112
100
AcDbEntity
  8
View001
100
AcDbLine
 10
32.6341
 20
121.799
 30
0
 11
35.0341
 21
121.799
 31
0
  0
LINE
  5
353
330
112
100
AcDbEntity
  8
View001
100
AcDbLine
 10
32.6341
 20
120.549
 30
0
 11
32.6341
 21
121.799
 31
0
  0
LINE
  5
354
330
112
100
AcDbEntity
  8
View001
100
AcDbLine
 10
20.6341
 20
120.549
 30
0
 11
32.6341
 21
120.549
 31
0
  0
LINE
  5
355
330
112
100
AcDbEntity
  8
View001
100
AcDbLine
 10
50.6341
 20
107.549
 30
0
 11
50.6341
 21
113.549
 31
0
  0
LINE
  5
356
330
112
100
AcDbEntity
  8
View001
100
AcDbLine
 10
200.634
 20
107.549
 30
0
 11
50.6341
 21
107.549
 31
0
  0
LINE
  5
357
330
112
100
AcDbEntity
  8
View001
100
AcDbLine
 10
50.6341
 20
113.549
 30
0
 11
200.634
 21
113.549
 31
0
  0
LINE
  5
358
330
112
100
AcDbEntity
  8
View001
100
AcDbLine
 10
200.634
 20
113.549
 30
0
 11
200.634
 21
107.549
 31
0
  0
LINE
  5
359
330
112
100
AcDbEntity
  8
View002
100
AcDbLine
 10
226.61
 20
199.451
 30
0
 11
246.61
 21
199.451
 31
0
  0
LINE
  5
35A
330
112
100
AcDbEntity
  8
View002
100
AcDbLine
 10
246.61
 20
199.451
 30
0
 11
246.61
 21
202.451
 31
0
  0
LINE
  5
35B
330
112
100
AcDbEntity
  8
View002
100
AcDbLine
 10
276.61
 20
202.451
 30
0
 11
246.61
 21
202.451
 31
0
  0
LINE
  5
35C
330
112
100
AcDbEntity
  8
View002
100
AcDbLine
 10
276.61
 20
199.451
 30
0
 11
276.61
 21
202.451
 31
0
  0
LINE
  5
35D
330
112
100
AcDbEntity
  8
View002
100
AcDbLine
 10
276.61
 20
199.451
 30
0
 11
296.61
 21
199.451
 31
0
  0
LINE
  5
35E
330
112
100
AcDbEntity
  8
View002
100
AcDbLine
 10
296.61
 20
199.451
 30
0
 11
296.61
 21
195.201
 31
0
  0
LINE
  5
35F
330
112
100
AcDbEntity
  8
View002
100
AcDbLine
 10
289.21
 20
195.201
 30
0
 11
296.61
 21
195.201
 31
0
  0
LINE
  5
360
330
112
100
AcDbEntity
  8
View002
100
AcDbLine
 10
289.21
 20
181.201
 30
0
 11
289.21
 21
195.201
 31
0
  0
LINE
  5
361
330
112
100
AcDbEntity
  8
View002
100
AcDbLine
 10
296.61
 20
181.201
 30
0
 11
289.21
 21
181.201
 31
0
  0
LINE
  5
362
330
112
100
AcDbEntity
  8
View002
100
AcDbLine
 10
296.61
 20
181.201
 30
0
 11
296.61
 21
139.451
 31
0
  0
LINE
  5
363
330
112
100
AcDbEntity
  8
View002
100
AcDbLine
 10
296.61
 20
139.451
 30
0
 11
276.61
 21
139.451
 31
0
  0
LINE
  5
364
330
112
100
AcDbEntity
  8
View002
100
AcDbLine
 10
276.61
 20
139.451
 30
0
 11
276.61
 21
136.451
 31
0
  0
LINE
  5
365
330
112
100
AcDbEntity
  8
View002
100
AcDbLine
 10
246.61
 20
136.451
 30
0
 11
276.61
 21
136.451
 31
0
  0
LINE
  5
366
330
112
100
AcDbEntity
  8
View002
100
AcDbLine
 10
246.61
 20
139.451
 30
0
 11
246.61
 21
136.451
 31
0
  0
LINE
  5
367
330
112
100
AcDbEntity
  8
View002
100
AcDbLine
 10
246.61
 20
139.451
 30
0
 11
226.61
 21
139.451
 31
0
  0
LINE
  5
368
330
112
100
AcDbEntity
  8
View002
100
AcDbLine
 10
226.61
 20
139.451
 30
0
 11
226.61
 21
199.451
 31
0
  0
LINE
  5
369
330
112
100
AcDbEntity
  8
View002
100
AcDbLine
 10
256.61
 20
173.951
 30
0
 11
256.61
 21
176.951
 31
0
  0
LINE
  5
36A
330
112
100
AcDbEntity
  8
View002
100
AcDbLine
 10
266.61
 20
173.951
 30
0
 11
256.61
 21
173.951
 31
0
  0
LINE
  5
36B
330
112
100
AcDbEntity
  8
View002
100
AcDbLine
 10
256.61
 20
176.951
 30
0
 11
266.61
 21
176.951
 31
0
  0
LINE
  5
36C
330
112
100
AcDbEntity
  8
View002
100
AcDbLine
 10
266.61
 20
176.951
 30
0
 11
266.61
 21
173.951
 31
0
  0
CIRCLE
  5
36D
330
112
100
AcDbEntity
  8
View002
100
AcDbCircle
 10
253.11
 20
175.451
 40
1.5
  0
CIRCLE
  5
36E
330
112
100
AcDbEntity
  8
View002
100
AcDbCircle
 10
247.81
 20
188.201
 40
1.5
  0
CIRCLE
  5
36F
330
112
100
AcDbEntity
  8
View002
100
AcDbCircle
 10
270.11
 20
175.451
 40
1.5
  0
CIRCLE
  5
370
330
112
100
AcDbEntity
  8
View002
100
AcDbCircle
 10
282.21
 20
179.451
 40
1.5
  0
CIRCLE
  5
371
330
112
100
AcDbEntity
  8
View002
100
AcDbCircle
 10
281.11
 20
162.451
 40
1.5
  0
LINE
  5
372
330
112
100
AcDbEntity
  8
View002
100
AcDbLine
 10
246.61
 20
160.951
 30
0
 11
246.61
 21
163.951
 31
0
  0
LINE
  5
373
330
112
100
AcDbEntity
  8
View002
100
AcDbLine
 10
276.61
 20
160.951
 30
0
 11
246.61
 21
160.951
 31
0
  0
LINE
  5
374
330
112
100
AcDbEntity
  8
View002
100
AcDbLine
 10
246.61
 20
163.951
 30
0
 11
276.61
 21
163.951
 31
0
  0
LINE
  5
375
330
112
100
AcDbEntity
  8
View002
100
AcDbLine
 10
276.61
 20
163.951
 30
0
 11
276.61
 21
160.951
 31
0
  0
CIRCLE
  5
376
330
112
100
AcDbEntity
  8
View002
100
AcDbCircle
 10
282.21
 20
196.951
 40
1.5
  0
CIRCLE
  5
377
330
112
100
AcDbEntity
  8
View002
100
AcDbCircle
 10
242.11
 20
162.451
 40
1.5
  0
LINE
  5
378
330
112
100
AcDbEntity
  8
View003
100
AcDbLine
 10
225.329
 20
120.488
 30
0
 11
245.329
 21
120.488
 31
0
  0
LINE
  5
379
330
112
100
AcDbEntity
  8
View003
100
AcDbLine
 10
245.329
 20
120.488
 30
0
 11
245.329
 21
123.488
 31
0
  0
LINE
  5
37A
330
112
100
AcDbEntity
  8
View003
100
AcDbLine
 10
225.329
 20
60.4878
 30
0
 11
225.329
 21
120.488
 31
0
  0
LINE
  5
37B
330
112
100
AcDbEntity
  8
View003
100
AcDbLine
 10
245.329
 20
60.4878
 30
0
 11
225.329
 21
60.4878
 31
0
  0
LINE
  5
37C
330
112
100
AcDbEntity
  8
View003
100
AcDbLine
 10
275.329
 20
123.488
 30
0
 11
245.329
 21
123.488
 31
0
  0
LINE
  5
37D
330
112
100
AcDbEntity
  8
View003
100
AcDbLine
 10
245.329
 20
60.4878
 30
0
 11
245.329
 21
57.4878
 31
0
  0
LINE
  5
37E
330
112
100
AcDbEntity
  8
View003
100
AcDbLine
 10
275.329
 20
120.488
 30
0
 11
275.329
 21
123.488
 31
0
  0
LINE
  5
37F
330
112
100
AcDbEntity
  8
View003
100
AcDbLine
 10
245.329
 20
57.4878
 30
0
 11
275.329
 21
57.4878
 31
0
  0
LINE
  5
380
330
112
100
AcDbEntity
  8
View003
100
AcDbLine
 10
275.329
 20
120.488
 30
0
 11
295.329
 21
120.488
 31
0
  0
LINE
  5
381
330
112
100
AcDbEntity
  8
View003
100
AcDbLine
 10
275.329
 20
60.4878
 30
0
 11
275.329
 21
57.4878
 31
0
  0
LINE
  5
382
330
112
100
AcDbEntity
  8
View003
100
AcDbLine
 10
295.329
 20
120.488
 30
0
 11
295.329
 21
60.4878
 31
0
  0
LINE
  5
383
330
112
100
AcDbEntity
  8
View003
100
AcDbLine
 10
295.329
 20
60.4878
 30
0
 11
275.329
 21
60.4878
 31
0
  0
LINE
  5
384
330
112
100
AcDbEntity
  8
View003
100
AcDbLine
 10
245.329
 20
81.9878
 30
0
 11
245.329
 21
84.9878
 31
0
  0
LINE
  5
385
330
112
100
AcDbEntity
  8
View003
100
AcDbLine
 10
275.329
 20
81.9878
 30
0
 11
245.329
 21
81.9878
 31
0
  0
LINE
  5
386
330
112
100
AcDbEntity
  8
View003
100
AcDbLine
 10
275.329
 20
84.9878
 30
0
 11
275.329
 21
81.9878
 31
0
  0
LINE
  5
387
330
112
100
AcDbEntity
  8
View003
100
AcDbLine
 10
245.329
 20
84.9878
 30
0
 11
275.329
 21
84.9878
 31
0
  0
CIRCLE
  5
388
330
112
100
AcDbEntity
  8
View003
100
AcDbCircle
 10
260.329
 20
109.238
 40
3.3
  0
CIRCLE
  5
389
330
112
100
AcDbEntity
  8
View003
100
AcDbCircle
 10
268.829
 20
96.4878
 40
1.5
  0
LINE
  5
38A
330
112
100
AcDbEntity
  8
View003
100
AcDbLine
 10
255.329
 20
94.9878
 30
0
 11
255.329
 21
97.9878
 31
0
  0
LINE
  5
38B
330
112
100
AcDbEntity
  8
View003
100
AcDbLine
 10
265.329
 20
94.9878
 30
0
 11
255.329
 21
94.9878
 31
0
  0
LINE
  5
38C
330
112
100
AcDbEntity
  8
View003
100
AcDbLine
 10
265.329
 20
97.9878
 30
0
 11
265.329
 21
94.9878
 31
0
  0
LINE
  5
38D
330
112
100
AcDbEntity
  8
View003
100
AcDbLine
 10
255.329
 20
97.9878
 30
0
 11
265.329
 21
97.9878
 31
0
  0
CIRCLE
  5
38E
330
112
100
AcDbEntity
  8
View003
100
AcDbCircle
 10
251.829
 20
96.4878
 40
1.5
  0
CIRCLE
  5
38F
330
112
100
AcDbEntity
  8
View003
100
AcDbCircle
 10
279.829
 20
83.4878
 40
1.5
  0
CIRCLE
  5
390
330
112
100
AcDbEntity
  8
View003
100
AcDbCircle
 10
240.829
 20
83.4878
 40
1.5
  0
LINE
  5
391
330
112
100
AcDbEntity
  8
View004
100
AcDbLine
 10
22.7683
 20
85.7927
 30
0
 11
212.768
 21
85.7927
 31
0
  0
LINE
  5
392
330
112
100
AcDbEntity
  8
View004
100
AcDbLine
 10
22.7683
 20
71.7927
 30
0
 11
22.7683
 21
85.7927
 31
0
  0
LINE
  5
393
330
112
100
AcDbEntity
  8
View004
100
AcDbLine
 10
212.768
 20
85.7927
 30
0
 11
212.768
 21
71.7927
 31
0
  0
LINE
  5
394
330
112
100
AcDbEntity
  8
View004
100
AcDbLine
 10
212.768
 20
71.7927
 30
0
 11
200.768
 21
71.7927
 31
0
  0
LINE
  5
395
330
112
100
AcDbEntity
  8
View004
100
AcDbLine
 10
200.768
 20
71.7927
 30
0
 11
200.768
 21
73.0427
 31
0
  0
LINE
  5
396
330
112
100
AcDbEntity
  8
View004
100
AcDbLine
 10
200.768
 20
73.0427
 30
0
 11
198.368
 21
73.0427
 31
0
  0
LINE
  5
397
330
112
100
AcDbEntity
  8
View004
100
AcDbLine
 10
198.368
 20
73.0427
 30
0
 11
198.368
 21
71.7927
 31
0
  0
LINE
  5
398
330
112
100
AcDbEntity
  8
View004
100
AcDbLine
 10
198.368
 20
71.7927
 30
0
 11
194.768
 21
71.7927
 31
0
  0
LINE
  5
399
330
112
100
AcDbEntity
  8
View004
100
AcDbLine
 10
194.768
 20
71.7927
 30
0
 11
194.768
 21
68.7927
 31
0
  0
LINE
  5
39A
330
112
100
AcDbEntity
  8
View004
100
AcDbLine
 10
194.768
 20
68.7927
 30
0
 11
198.368
 21
68.7927
 31
0
  0
LINE
  5
39B
330
112
100
AcDbEntity
  8
View004
100
AcDbLine
 10
198.368
 20
68.7927
 30
0
 11
198.368
 21
67.5427
 31
0
  0
LINE
  5
39C
330
112
100
AcDbEntity
  8
View004
100
AcDbLine
 10
198.368
 20
67.5427
 30
0
 11
200.768
 21
67.5427
 31
0
  0
LINE
  5
39D
330
112
100
AcDbEntity
  8
View004
100
AcDbLine
 10
200.768
 20
67.5427
 30
0
 11
200.768
 21
68.7927
 31
0
  0
LINE
  5
39E
330
112
100
AcDbEntity
  8
View004
100
AcDbLine
 10
200.768
 20
68.7927
 30
0
 11
212.768
 21
68.7927
 31
0
  0
LINE
  5
39F
330
112
100
AcDbEntity
  8
View004
100
AcDbLine
 10
212.768
 20
68.7927
 30
0
 11
212.768
 21
65.7927
 31
0
  0
LINE
  5
3A0
330
112
100
AcDbEntity
  8
View004
100
AcDbLine
 10
212.768
 20
65.7927
 30
0
 11
215.768
 21
65.7927
 31
0
  0
LINE
  5
3A1
330
112
100
AcDbEntity
  8
View004
100
AcDbLine
 10
215.768
 20
35.7927
 30
0
 11
215.768
 21
65.7927
 31
0
  0
LINE
  5
3A2
330
112
100
AcDbEntity
  8
View004
100
AcDbLine
 10
212.768
 20
35.7927
 30
0
 11
215.768
 21
35.7927
 31
0
  0
LINE
  5
3A3
330
112
100
AcDbEntity
  8
View004
100
AcDbLine
 10
212.768
 20
35.7927
 30
0
 11
212.768
 21
32.7927
 31
0
  0
LINE
  5
3A4
330
112
100
AcDbEntity
  8
View004
100
AcDbLine
 10
200.768
 20
32.7927
 30
0
 11
212.768
 21
32.7927
 31
0
  0
LINE
  5
3A5
330
112
100
AcDbEntity
  8
View004
100
AcDbLine
 10
200.768
 20
34.0427
 30
0
 11
200.768
 21
32.7927
 31
0
  0
LINE
  5
3A6
330
112
100
AcDbEntity
  8
View004
100
AcDbLine
 10
198.368
 20
34.0427
 30
0
 11
200.768
 21
34.0427
 31
0
  0
LINE
  5
3A7
330
112
100
AcDbEntity
  8
View004
100
AcDbLine
 10
198.368
 20
32.7927
 30
0
 11
198.368
 21
34.0427
 31
0
  0
LINE
  5
3A8
330
112
100
AcDbEntity
  8
View004
100
AcDbLine
 10
194.768
 20
32.7927
 30
0
 11
198.368
 21
32.7927
 31
0
  0
LINE
  5
3A9
330
112
100
AcDbEntity
  8
View004
100
AcDbLine
 10
194.768
 20
29.7927
 30
0
 11
194.768
 21
32.7927
 31
0
  0
LINE
  5
3AA
330
112
100
AcDbEntity
  8
View004
100
AcDbLine
 10
198.368
 20
29.7927
 30
0
 11
194.768
 21
29.7927
 31
0
  0
LINE
  5
3AB
330
112
100
AcDbEntity
  8
View004
100
AcDbLine
 10
198.368
 20
28.5427
 30
0
 11
198.368
 21
29.7927
 31
0
  0
LINE
  5
3AC
330
112
100
AcDbEntity
  8
View004
100
AcDbLine
 10
200.768
 20
28.5427
 30
0
 11
198.368
 21
28.5427
 31
0
  0
LINE
  5
3AD
330
112
100
AcDbEntity
  8
View004
100
AcDbLine
 10
200.768
 20
29.7927
 30
0
 11
200.768
 21
28.5427
 31
0
  0
LINE
  5
3AE
330
112
100
AcDbEntity
  8
View004
100
AcDbLine
 10
212.768
 20
29.7927
 30
0
 11
200.768
 21
29.7927
 31
0
  0
LINE
  5
3AF
330
112
100
AcDbEntity
  8
View004
100
AcDbLine
 10
212.768
 20
29.7927
 30
0
 11
212.768
 21
15.7927
 31
0
  0
LINE
  5
3B0
330
112
100
AcDbEntity
  8
View004
100
AcDbLine
 10
212.768
 20
15.7927
 30
0
 11
22.7683
 21
15.7927
 31
0
  0
LINE
  5
3B1
330
112
100
AcDbEntity
  8
View004
100
AcDbLine
 10
22.7683
 20
15.7927
 30
0
 11
22.7683
 21
29.7927
 31
0
  0
LINE
  5
3B2
330
112
100
AcDbEntity
  8
View004
100
AcDbLine
 10
22.7683
 20
29.7927
 30
0
 11
34.7683
 21
29.7927
 31
0
  0
LINE
  5
3B3
330
112
100
AcDbEntity
  8
View004
100
AcDbLine
 10
34.7683
 20
29.7927
 30
0
 11
34.7683
 21
28.5427
 31
0
  0
LINE
  5
3B4
330
112
100
AcDbEntity
  8
View004
100
AcDbLine
 10
34.7683
 20
28.5427
 30
0
 11
37.1683
 21
28.5427
 31
0
  0
LINE
  5
3B5
330
112
100
AcDbEntity
  8
View004
100
AcDbLine
 10
37.1683
 20
28.5427
 30
0
 11
37.1683
 21
29.7927
 31
0
  0
LINE
  5
3B6
330
112
100
AcDbEntity
  8
View004
100
AcDbLine
 10
37.1683
 20
29.7927
 30
0
 11
40.7683
 21
29.7927
 31
0
  0
LINE
  5
3B7
330
112
100
AcDbEntity
  8
View004
100
AcDbLine
 10
40.7683
 20
29.7927
 30
0
 11
40.7683
 21
32.7927
 31
0
  0
LINE
  5
3B8
330
112
100
AcDbEntity
  8
View004
100
AcDbLine
 10
40.7683
 20
32.7927
 30
0
 11
37.1683
 21
32.7927
 31
0
  0
LINE
  5
3B9
330
112
100
AcDbEntity
  8
View004
100
AcDbLine
 10
37.1683
 20
32.7927
 30
0
 11
37.1683
 21
34.0427
 31
0
  0
LINE
  5
3BA
330
112
100
AcDbEntity
  8
View004
100
AcDbLine
 10
37.1683
 20
34.0427
 30
0
 11
34.7683
 21
34.0427
 31
0
  0
LINE
  5
3BB
330
112
100
AcDbEntity
  8
View004
100
AcDbLine
 10
34.7683
 20
34.0427
 30
0
 11
34.7683
 21
32.7927
 31
0
  0
LINE
  5
3BC
330
112
100
AcDbEntity
  8
View004
100
AcDbLine
 10
34.7683
 20
32.7927
 30
0
 11
22.7683
 21
32.7927
 31
0
  0
LINE
  5
3BD
330
112
100
AcDbEntity
  8
View004
100
AcDbLine
 10
22.7683
 20
32.7927
 30
0
 11
22.7683
 21
35.7927
 31
0
  0
LINE
  5
3BE
330
112
100
AcDbEntity
  8
View004
100
AcDbLine
 10
22.7683
 20
35.7927
 30
0
 11
19.7683
 21
35.7927
 31
0
  0
LINE
  5
3BF
330
112
100
AcDbEntity
  8
View004
100
AcDbLine
 10
19.7683
 20
65.7927
 30
0
 11
19.7683
 21
35.7927
 31
0
  0
LINE
  5
3C0
330
112
100
AcDbEntity
  8
View004
100
AcDbLine
 10
22.7683
 20
65.7927
 30
0
 11
19.7683
 21
65.7927
 31
0
  0
LINE
  5
3C1
330
112
100
AcDbEntity
  8
View004
100
AcDbLine
 10
22.7683
 20
65.7927
 30
0
 11
22.7683
 21
68.7927
 31
0
  0
LINE
  5
3C2
330
112
100
AcDbEntity
  8
View004
100
AcDbLine
 10
34.7683
 20
68.7927
 30
0
 11
22.7683
 21
68.7927
 31
0
  0
LINE
  5
3C3
330
112
100
AcDbEntity
  8
View004
100
AcDbLine
 10
34.7683
 20
67.5427
 30
0
 11
34.7683
 21
68.7927
 31
0
  0
LINE
  5
3C4
330
112
100
AcDbEntity
  8
View004
100
AcDbLine
 10
37.1683
 20
67.5427
 30
0
 11
34.7683
 21
67.5427
 31
0
  0
LINE
  5
3C5
330
112
100
AcDbEntity
  8
View004
100
AcDbLine
 10
37.1683
 20
68.7927
 30
0
 11
37.1683
 21
67.5427
 31
0
  0
LINE
  5
3C6
330
112
100
AcDbEntity
  8
View004
100
AcDbLine
 10
40.7683
 20
68.7927
 30
0
 11
37.1683
 21
68.7927
 31
0
  0
LINE
  5
3C7
330
112
100
AcDbEntity
  8
View004
100
AcDbLine
 10
40.7683
 20
71.7927
 30
0
 11
40.7683
 21
68.7927
 31
0
  0
LINE
  5
3C8
330
112
100
AcDbEntity
  8
View004
100
AcDbLine
 10
37.1683
 20
71.7927
 30
0
 11
40.7683
 21
71.7927
 31
0
  0
LINE
  5
3C9
330
112
100
AcDbEntity
  8
View004
100
AcDbLine
 10
37.1683
 20
73.0427
 30
0
 11
37.1683
 21
71.7927
 31
0
  0
LINE
  5
3CA
330
112
100
AcDbEntity
  8
View004
100
AcDbLine
 10
34.7683
 20
73.0427
 30
0
 11
37.1683
 21
73.0427
 31
0
  0
LINE
  5
3CB
330
112
100
AcDbEntity
  8
View004
100
AcDbLine
 10
34.7683
 20
71.7927
 30
0
 11
34.7683
 21
73.0427
 31
0
  0
LINE
  5
3CC
330
112
100
AcDbEntity
  8
View004
100
AcDbLine
 10
22.7683
 20
71.7927
 30
0
 11
34.7683
 21
71.7927
 31
0
  0
LINE
  5
3CD
330
112
100
AcDbEntity
  8
View004
100
AcDbLine
 10
172.768
 20
24.5427
 30
0
 11
172.768
 21
77.0427
 31
0
  0
LINE
  5
3CE
330
112
100
AcDbEntity
  8
View004
100
AcDbLine
 10
192.768
 20
24.5427
 30
0
 11
172.768
 21
24.5427
 31
0
  0
LINE
  5
3CF
330
112
100
AcDbEntity
  8
View004
100
AcDbLine
 10
172.768
 20
77.0427
 30
0
 11
192.768
 21
77.0427
 31
0
  0
LINE
  5
3D0
330
112
100
AcDbEntity
  8
View004
100
AcDbLine
 10
192.768
 20
77.0427
 30
0
 11
192.768
 21
24.5427
 31
0
  0
LINE
  5
3D1
330
112
100
AcDbEntity
  8
View004
100
AcDbLine
 10
79.0183
 20
24.5427
 30
0
 11
79.0183
 21
77.0427
 31
0
  0
LINE
  5
3D2
330
112
100
AcDbEntity
  8
View004
100
AcDbLine
 10
99.0183
 20
24.5427
 30
0
 11
79.0183
 21
24.5427
 31
0
  0
LINE
  5
3D3
330
112
100
AcDbEntity
  8
View004
100
AcDbLine
 10
79.0183
 20
77.0427
 30
0
 11
99.0183
 21
77.0427
 31
0
  0
LINE
  5
3D4
330
112
100
AcDbEntity
  8
View004
100
AcDbLine
 10
99.0183
 20
77.0427
 30
0
 11
99.0183
 21
24.5427
 31
0
  0
ENDSEC
  0
SECTION
  2
OBJECTS
  0
DICTIONARY
  5
500
330
0
100
AcDbDictionary
  3
ACAD_GROUP
350
501
  0
DICTIONARY
  5
501
330
500
100
AcDbDictionary
  0
ENDSEC
  0
EOF